<svg xmlns="http://www.w3.org/2000/svg" viewBox="0 0 17.14 48"><title>sword</title><rect x="6.86" width="3.43" height="3.43" style="fill:#97bbbd"/><rect x="10.29" y="3.43" width="3.43" height="3.43" style="fill:#97bbbd"/><rect x="6.86" y="3.43" width="3.43" height="3.43" style="fill:#97bbbd"/><rect x="3.43" y="3.43" width="3.43" height="3.43" style="fill:#97bbbd"/><rect x="10.29" y="6.86" width="3.43" height="3.43" style="fill:#97bbbd"/><rect x="6.86" y="6.86" width="3.43" height="3.43" style="fill:#9fc0c2"/><rect x="3.43" y="6.86" width="3.43" height="3.43" style="fill:#97bbbd"/><rect x="10.29" y="10.29" width="3.43" height="3.43" style="fill:#97bbbd"/><rect x="6.86" y="10.29" width="3.43" height="3.43" style="fill:#9fc0c2"/><rect x="3.43" y="10.29" width="3.43" height="3.43" style="fill:#88b1b3"/><rect x="10.29" y="13.71" width="3.43" height="3.43" style="fill:#88b1b3"/><rect x="6.86" y="13.71" width="3.43" height="3.43" style="fill:#9fc0c2"/><rect x="3.43" y="13.71" width="3.43" height="3.43" style="fill:#88b1b3"/><rect x="10.29" y="17.14" width="3.43" height="3.43" style="fill:#88b1b3"/><rect x="6.86" y="17.14" width="3.43" height="3.43" style="fill:#9fc0c2"/><rect x="3.43" y="17.14" width="3.43" height="3.43" style="fill:#88b1b3"/><rect x="10.29" y="20.57" width="3.43" height="3.43" style="fill:#88b1b3"/><rect x="6.86" y="20.57" width="3.43" height="3.43" style="fill:#9fc0c2"/><rect x="3.43" y="20.57" width="3.43" height="3.43" style="fill:#88b1b3"/><rect x="10.29" y="24" width="3.43" height="3.43" style="fill:#88b1b3"/><rect x="6.86" y="24" width="3.43" height="3.43" style="fill:#9fc0c2"/><rect x="3.43" y="24" width="3.43" height="3.43" style="fill:#88b1b3"/><rect x="10.29" y="27.43" width="3.43" height="3.43" style="fill:#97bbbd"/><rect x="6.86" y="27.43" width="3.43" height="3.43" style="fill:#9fc0c2"/><rect x="3.43" y="27.43" width="3.43" height="3.43" style="fill:#88b1b3"/><rect x="10.29" y="30.86" width="3.43" height="3.43" style="fill:#88b1b3"/><rect x="6.86" y="30.86" width="3.43" height="3.43" style="fill:#9fc0c2"/><rect x="3.43" y="30.86" width="3.43" height="3.43" style="fill:#88b1b3"/><rect x="13.71" y="34.29" width="3.43" height="3.43" style="fill:#d02100"/><rect x="10.29" y="34.29" width="3.43" height="3.43" style="fill:#d02100"/><rect x="6.86" y="34.29" width="3.43" height="3.43" style="fill:#d02100"/><rect x="3.43" y="34.29" width="3.43" height="3.43" style="fill:#da4d33"/><rect y="34.29" width="3.43" height="3.43" style="fill:#d02100"/><rect x="6.86" y="37.71" width="3.43" height="3.43" style="fill:#0b5b6a"/><rect x="6.86" y="41.14" width="3.43" height="3.43" style="fill:#084450"/><rect x="6.86" y="44.57" width="3.43" height="3.43" style="fill:#d02100"/></svg>